<?xml version="1.0" encoding="UTF-8" standalone="no"?>
<!-- Created with Inkscape (http://www.inkscape.org/) -->

<svg
   version="1.1"
   id="svg1"
   width="16"
   height="16"
   viewBox="0 0 16 16"
   sodipodi:docname="logo.svg"
   inkscape:version="1.4.2 (f4327f4, 2025-05-13)"
   xmlns:inkscape="http://www.inkscape.org/namespaces/inkscape"
   xmlns:sodipodi="http://sodipodi.sourceforge.net/DTD/sodipodi-0.dtd"
   xmlns="http://www.w3.org/2000/svg"
   xmlns:svg="http://www.w3.org/2000/svg">
  <defs
     id="defs1" />
  <sodipodi:namedview
     id="namedview1"
     pagecolor="#ffffff"
     bordercolor="#000000"
     borderopacity="0.25"
     inkscape:showpageshadow="2"
     inkscape:pageopacity="0.0"
     inkscape:pagecheckerboard="0"
     inkscape:deskcolor="#d1d1d1"
     inkscape:zoom="32"
     inkscape:cx="5.40625"
     inkscape:cy="5.65625"
     inkscape:window-width="1280"
     inkscape:window-height="730"
     inkscape:window-x="-6"
     inkscape:window-y="-6"
     inkscape:window-maximized="1"
     inkscape:current-layer="g1" />
  <g
     inkscape:groupmode="layer"
     inkscape:label="Image"
     id="g1">
    <path
       id="path1"
       style="fill:#c5c5c5;fill-opacity:1;stroke-width:0.0261153"
       d="M 11.048828,2.8066406 C 10.97005,3.2650224 11.004024,3.7506817 11.003908,4.21875 9.1308615,4.224058 7.2573445,4.207619 5.3847656,4.2460938 4.9450446,4.309698 4.510099,4.5474437 4.2480469,4.8691406 4.0298096,5.1370493 3.876348,5.5274978 3.875,5.8183594 L 3.87305,5.9179684 H 2.1367188 c -1.86769431,0 -1.86113357,-0.00131 -1.95507818,0.1328124 -0.0539918,0.077093 -0.0551061,0.2541922 -0.001953,0.3300782 0.10103295,0.1442386 -0.14760713,0.1367187 4.24414058,0.1367187 4.4481788,0 4.1662889,-0.010559 4.2636719,0.1542969 0.067289,0.1139113 0.055011,0.2235306 -0.033203,0.3222656 l -0.076172,0.085937 -3.2636719,0.011719 c -3.2635393,0.013053 -3.2641906,0.013644 -3.3378906,0.068359 -0.107859,0.080074 -0.1378292,0.2240554 -0.072266,0.3457032 0.028036,0.052018 0.079326,0.1088673 0.1152343,0.1269531 0.050723,0.025546 0.5003346,0.032906 2.015625,0.033203 1.151202,2.272e-4 1.9775667,0.01092 2.015625,0.025391 0.1874793,0.071279 0.2361517,0.2961452 0.097656,0.4511719 l -0.076172,0.085937 -2.1425781,0.013672 -2.140625,0.011719 -0.068359,0.064453 c -0.054736,0.051432 -0.066406,0.086934 -0.066406,0.1914062 0,0.1088764 0.012587,0.1399499 0.078125,0.2011719 0.042578,0.039774 0.1128041,0.078811 0.1582031,0.087891 0.045399,0.00908 0.7691804,0.017578 1.6074219,0.017578 h 1.5234375 l 0.080078,0.070313 c 0.10109,0.090332 0.1338178,0.259474 0.068359,0.359375 -0.1048068,0.1599573 -0.087677,0.1582031 -1.2050781,0.1582031 -0.9259982,0 -1.0268538,0.00368 -1.0898438,0.044922 -0.1495604,0.097911 -0.1418794,0.3699977 0.013672,0.4648437 0.078129,0.047639 0.1390563,0.050677 0.9667969,0.050781 0.9885656,1.093e-4 1.0295432,0.0068 1.1054687,0.1660157 0.054997,0.11533 0.031092,0.247742 -0.058594,0.332032 l -0.066406,0.06445 -1.3925781,0.01172 -1.3945313,0.01367 -0.080078,0.07617 c -0.1062011,0.101781 -0.1146048,0.285593 -0.017578,0.398438 l 0.064453,0.07422 0.9296875,0.0078 0.9277344,0.0059 0.00195,0.371094 c 2.75e-4,0.224429 0.015855,0.444159 0.039063,0.554688 0.120102,0.572043 0.5973244,1.058683 1.1933594,1.214843 0.183253,0.04798 0.3419768,0.04938 4.3554687,0.05078 4.6394274,0.0016 4.2892054,0.01424 4.6933594,-0.183594 0.294657,-0.144234 0.563916,-0.406451 0.695312,-0.677735 0.1314,-0.271295 0.173829,-0.460841 0.173829,-0.773437 V 11.40625 c 0.353287,-0.224816 0.710094,-0.574767 0.810547,-1.097655 C 15.991316,9.4997386 15.426197,8.7809557 15.025391,8.3867188 V 7.078125 c 0,-0.8094937 -0.01017,-1.3670326 -0.02734,-1.4628906 -0.0089,-0.049411 -0.09546,-0.4810809 -0.47852,-0.8613282 -0.415537,-0.4535773 -0.938161,-0.4824377 -1.5,-0.5410156 -0.03916,-0.054224 -0.902173,-1.2401994 -1.65625,-1.5 -0.09901,-0.034114 -0.238304,-0.035156 -0.314453,0.09375 z m 1.269524,1.34375 c 0.724365,0.900611 1.028978,1.8096772 1.103516,3.2949219 0.0097,0.1932302 0.01362,0.3520702 0.0078,0.3515625 -0.0058,-5.093e-4 -0.068,-0.097424 -0.138672,-0.2148438 C 13.132002,7.3178014 12.793257,6.8706964 12.595703,6.6621094 12.08831,6.1263792 12.089262,6.1269288 11.949219,5.7695312 11.742697,5.2424729 11.591182,4.6981247 11.513672,4.2011719 11.471019,3.9276967 11.454451,3.5272869 11.482422,3.46875 c 0.0686,-0.09004 0.495645,0.2585597 0.83593,0.6816406 z m -2.7656176,0.833985 c 0.3077809,0.031766 0.9416986,0.312116 1.4101566,0.625 0.824505,0.550688 1.592803,1.3839186 2.234375,2.421875 0.08921,0.1443503 0.168381,0.2617188 0.175781,0.2617188 h 0.002 c 0.0063,-0.045064 -0.01571,-0.087561 -0.02348,-0.130856 l 0.177735,0.015625 c 0.59076,0.053498 1.098329,0.3203258 1.453125,0.7636718 0.384065,0.4799259 0.541907,0.9289779 0.460937,1.3105468 -0.03082,0.145285 -0.05628,0.188792 -0.09217,0.130851 -0.03254,-0.02428 -0.09407,-0.02548 -0.275484,-0.02548 0.0654,0.09289 0.1263,0.188802 0.18945,0.283203 l -0.05469,0.07813 c -0.189302,0.265849 -0.454992,0.394653 -0.851563,0.414062 -0.327806,0.01605 -0.52062,-0.02179 -0.691406,-0.136718 -0.0563,-0.03789 -0.111516,-0.07049 -0.111516,-0.05259 0.07438,0.175788 0.276584,0.204406 0.410192,0.303147 -0.08781,0.03434 -0.442093,0.02618 -0.65625,-0.01563 -0.372333,-0.07267 -0.978421,-0.03414 -1.074219,0.02344 v 0.002 c 0.01852,0.01394 0.403436,0.143364 0.699219,0.234375 0.354677,0.109131 0.753726,0.203729 1.097656,0.261719 0.332079,0.05599 0.404422,0.08309 0.482422,0.175781 0.08605,0.102283 0.08589,0.225787 0.002,0.316407 -0.07946,0.08574 -0.194054,0.134245 -0.410156,0.171875 -0.378181,0.06586 -1.21013,0.02066 -1.66211,-0.08984 -0.390734,-0.09553 -0.83788,-0.36096 -1.080078,-0.642578 -0.249302,-0.289879 -0.371646,-0.519786 -0.441406,-0.830078 l -0.04297,-0.197266 -0.02148,0.154297 c -0.02405,0.183366 -0.003,0.474141 0.04687,0.660156 0.0609,0.227082 0.227895,0.491039 0.5,0.798828 C 10.698483,12.251913 10.095659,11.95086 9.4896594,11.623562 9.2464805,11.460177 9.1860312,11.41159 9.0873155,11.330593 l 0.056641,-0.18164 C 9.2330929,10.86785 9.270799,10.463466 9.234375,10.169922 9.2299463,9.9851475 9.153515,9.8151813 9.1132812,9.6386719 8.9619081,10.464346 8.8711075,10.76273 8.6953125,11.101562 8.561208,11.360042 8.2698467,11.66235 8.0371094,11.785156 7.6225652,12.003893 7.1175929,12.00032 6.4433594,11.771484 l -0.2890625,-0.09766 -0.3222657,0.214844 c -0.7010475,0.46831 -1.1185483,0.585144 -1.3613281,0.380859 -0.2419327,-0.203573 -0.1696488,-0.444829 0.2089844,-0.701172 0.2207816,-0.149474 0.6043588,-0.459581 0.7226563,-0.583984 0.1270211,-0.133579 0.2669567,-0.208984 0.3867187,-0.208984 0.049238,0 0.1930253,0.03057 0.3203125,0.06836 0.394512,0.117121 0.552644,0.139403 0.7148435,0.162108 C 6.6323837,10.795596 6.5389795,10.519483 6.4042969,10.275391 6.1110838,10.206535 5.9582206,9.9590406 5.8945312,9.8222656 5.8249963,9.6729349 5.8101663,9.3863031 5.8632812,9.2304688 5.9396461,9.0064223 6.1578619,8.7890625 6.4335942,8.7890625 c 0.063293,-0.00857 0.1182486,-0.00167 0.1601562,0.00781 0.013523,-0.02481 0.026569,-0.049396 0.039063,-0.072266 C 6.8288798,8.3591448 7.1980677,8.1850895 7.5156257,7.9531223 7.8734025,7.7095203 8.2744859,7.7342107 8.679688,7.681635 c 0.5853269,-0.00257 0.9682432,0.089908 1.527343,0.3691406 0.240444,0.1200856 0.958285,0.6014065 1.076172,0.6757813 0.247401,0.1560839 0.737176,0.3324923 1.351564,0.46875 0.169518,-0.069361 0.339843,-0.136715 0.509764,-0.2050725 L 12.849609,8.9042974 C 12.207684,8.7195701 11.523585,8.3144638 10.916016,7.7597656 10.23111,7.1344606 9.6148608,6.2105671 9.390625,5.4726562 9.301617,5.1797533 9.2971501,5.1245578 9.3613281,5.0429688 9.4162358,4.973164 9.4335572,4.9720572 9.5527344,4.9843756 Z m 0.8612816,0.7558556 c 0,0.040287 0.151273,0.3458986 0.326172,0.6074156 0.20187,0.3018449 0.60499,0.799244 0.863282,1.0664063 0.261136,0.2701046 0.513237,0.484657 0.875,0.7441406 0.143178,0.1026977 0.263778,0.1875 0.267578,0.1875 0.0038,0 -0.01672,-0.059307 -0.04492,-0.1308593 C 12.417804,7.4958316 11.790107,6.7242279 11.003906,6.1269531 10.813081,5.9819836 10.470011,5.7402312 10.414016,5.7402312 Z m 3.697312,3.4707063 c -0.151437,0.00509 -0.298951,0.081956 -0.363281,0.2148437 -0.121826,0.251659 -0.01419,0.5120516 0.25,0.6035158 0.26471,0.09164 0.55664,-0.1210604 0.556641,-0.4062501 0,-0.1086292 -0.08798,-0.2703698 -0.185547,-0.3398438 -0.07537,-0.053669 -0.16695,-0.075318 -0.257813,-0.072266 z m 0.04102,0.1269531 c 0.03447,-0.00565 0.06689,0.010492 0.09961,0.015625 0.05654,0.021715 0.05316,0.149744 -0.0059,0.203125 -0.06779,0.06135 -0.127445,0.053318 -0.177735,-0.023437 -0.0637,-0.097228 -0.01195,-0.1853861 0.08399,-0.1953125 z"
       sodipodi:nodetypes="ccssccsccsscccssssccccccssssccsscscscccccccccccccssscccscscscssscssscscccccccccccsccccsscccccsssccsssccsccccsssscssscsssscsscssscssssccssccssssssccsssccsss" />
  </g>
</svg>
