<?xml version="1.0" encoding="UTF-8" standalone="no"?>
<!-- Created with Inkscape (http://www.inkscape.org/) -->

<svg
   version="1.1"
   id="svg1"
   width="16"
   height="16"
   viewBox="0 0 16 16"
   sodipodi:docname="logo.svg"
   inkscape:version="1.4.2 (f4327f4, 2025-05-13)"
   xmlns:inkscape="http://www.inkscape.org/namespaces/inkscape"
   xmlns:sodipodi="http://sodipodi.sourceforge.net/DTD/sodipodi-0.dtd"
   xmlns="http://www.w3.org/2000/svg"
   xmlns:svg="http://www.w3.org/2000/svg">
  <defs
     id="defs1" />
  <sodipodi:namedview
     id="namedview1"
     pagecolor="#ffffff"
     bordercolor="#000000"
     borderopacity="0.25"
     inkscape:showpageshadow="2"
     inkscape:pageopacity="0.0"
     inkscape:pagecheckerboard="0"
     inkscape:deskcolor="#d1d1d1"
     inkscape:zoom="15.512821"
     inkscape:cx="36.937189"
     inkscape:cy="31.619008"
     inkscape:window-width="3840"
     inkscape:window-height="2054"
     inkscape:window-x="5749"
     inkscape:window-y="120"
     inkscape:window-maximized="1"
     inkscape:current-layer="g1" />
  <g
     inkscape:groupmode="layer"
     inkscape:label="Image"
     id="g1">
    <path
       style="fill:#c5c5c5;stroke-width:0.0261153;fill-opacity:1"
       d="m 5.1069243,13.254973 c -0.596035,-0.15616 -1.0736636,-0.641837 -1.1937656,-1.21388 -0.023206,-0.110529 -0.03856,-0.329571 -0.038835,-0.554 L 3.8738688,11.1159 2.9444851,11.10842 2.0151014,11.100939 1.9520989,11.027666 C 1.8550723,10.914821 1.8629297,10.731 1.9691308,10.629219 l 0.080034,-0.0767 1.3934111,-0.01306 1.3934112,-0.01306 0.066965,-0.06294 c 0.089686,-0.08429 0.1128893,-0.217815 0.057892,-0.333145 C 4.8849186,9.9711008 4.8436868,9.9649295 3.8551212,9.9648201 3.0273807,9.9647157 2.9677431,9.9615866 2.8896144,9.9139479 2.7340632,9.8191019 2.7256008,9.5468022 2.8751612,9.4488912 c 0.06299,-0.041237 0.1641559,-0.045455 1.090154,-0.045455 1.117401,0 1.0994612,0.00235 1.204268,-0.1576074 0.065458,-0.099901 0.034001,-0.2678404 -0.067089,-0.3581722 L 5.0221234,8.8158392 H 3.4980473 c -0.8382415,0 -1.56122,-0.00743 -1.6066186,-0.016509 -0.045399,-0.00908 -0.1173793,-0.04905 -0.159957,-0.088824 -0.065538,-0.061222 -0.077414,-0.092044 -0.077414,-0.2009204 0,-0.1044723 0.012643,-0.140485 0.067379,-0.1919167 L 1.788815,8.2543577 3.9303436,8.2412996 6.071872,8.2282416 6.1480646,8.1429544 C 6.2865597,7.9879277 6.2377779,7.7625551 6.0502987,7.6912756 6.0122402,7.6768049 5.1865919,7.6666023 4.03539,7.6663751 2.5200995,7.6660775 2.0703963,7.658653 2.0196736,7.6331069 1.983765,7.6150211 1.9314464,7.5576633 1.9034102,7.5056451 c -0.065564,-0.1216478 -0.03539,-0.265559 0.072469,-0.3456332 0.0737,-0.054715 0.074853,-0.054738 3.3383923,-0.067791 L 8.578939,7.0791629 8.655138,6.9938759 C 8.743352,6.8951409 8.754072,6.7862079 8.686783,6.6722966 8.5894,6.5074411 8.8717565,6.5176814 4.4235777,6.5176814 c -4.39174778,0 -4.14242336,0.008 -4.24345631,-0.1362386 C 0.12696849,6.3055568 0.12795059,6.1277489 0.18194239,6.050656 0.27588699,5.9165321 0.26865339,5.9170268 2.1363476,5.9170268 H 3.873862 l 4.551e-4,-0.097933 C 3.8756651,5.5282322 4.0290903,5.1378112 4.2473276,4.8699025 4.5093797,4.5482056 4.944411,4.3093565 5.384132,4.2457523 5.4869965,4.2308736 6.6729797,4.2203463 8.2808415,4.2200408 L 11.003373,4.2195156 V 3.551073 c 0,-0.5839115 0.0057,-0.6780082 0.04468,-0.7440821 0.06207,-0.1050717 0.180603,-0.1403863 0.315368,-0.093956 0.384028,0.1323083 1.128042,0.7697349 1.503326,1.2879593 l 0.152815,0.2110206 0.291147,0.015269 c 0.506255,0.026549 0.86013,0.1806595 1.208182,0.5261583 0.176429,0.1751349 0.231915,0.2519112 0.331326,0.4584601 0.06568,0.1364531 0.131901,0.3178287 0.147169,0.4030565 0.01717,0.095858 0.02776,0.6540616 0.02776,1.4635553 v 1.3085953 l 0.11997,0.1164279 c 0.512918,0.4977707 0.799178,1.2452065 0.691527,1.8056016 -0.07224,0.376043 -0.364454,0.810697 -0.68204,1.014491 l -0.129457,0.08307 v 0.266003 c 0,0.312596 -0.0426,0.501873 -0.174,0.773169 -0.131397,0.271283 -0.400329,0.533564 -0.694986,0.677798 -0.404154,0.197832 -0.05313,0.184175 -4.6925576,0.182574 -4.0134919,-0.0014 -4.1734364,-0.0033 -4.3566894,-0.05128 z m 9.0010577,-0.838851 c 0.216102,-0.03763 0.331031,-0.0856 0.410489,-0.171341 0.08399,-0.09062 0.08265,-0.215177 -0.0034,-0.31746 -0.078,-0.09269 -0.150201,-0.118874 -0.48228,-0.174863 -0.34393,-0.05799 -0.742171,-0.153252 -1.096848,-0.262383 -0.296526,-0.09124 -0.683951,-0.220653 -0.700659,-0.234046 -0.0047,-0.0038 0.05832,-0.02079 0.140119,-0.03777 0.203861,-0.04232 0.687316,-0.03587 0.934982,0.01247 0.214157,0.0418 0.568357,0.05057 0.656168,0.01623 0.04114,-0.01609 0.03058,-0.02336 -0.05342,-0.03679 -0.105777,-0.01691 -0.29876,-0.156348 -0.35069,-0.253381 -0.01824,-0.03408 0.01229,-0.02252 0.104592,0.03959 0.170786,0.11493 0.364102,0.15327 0.691908,0.137225 0.396571,-0.01941 0.661985,-0.14864 0.851286,-0.414489 l 0.05553,-0.07799 -0.09444,-0.14224 -0.09444,-0.14224 h 0.129303 c 0.07112,0 0.136565,0.01175 0.145442,0.02611 0.03447,0.05578 0.05944,0.02007 0.09146,-0.130847 0.08097,-0.3815691 -0.07732,-0.831482 -0.461385,-1.3114077 -0.354796,-0.443346 -0.861565,-0.709629 -1.452325,-0.7631275 l -0.176977,-0.016027 0.01659,0.066088 c 0.0091,0.036348 0.0105,0.066087 0.0031,0.066087 -0.0074,0 -0.08653,-0.1181043 -0.17574,-0.2624546 C 12.554775,6.9931088 11.78649,6.1605467 10.961985,5.6098587 10.493527,5.2969747 9.8608295,5.0160573 9.5530486,4.9842916 9.4299553,4.9715872 9.414563,4.976321 9.362099,5.0430188 9.297921,5.1246078 9.301603,5.1801603 9.390611,5.4730632 c 0.2242358,0.7379107 0.840416,1.6618452 1.525322,2.2871502 0.607569,0.5546982 1.292706,0.9601482 1.934631,1.144875 l 0.293314,0.084407 -0.254141,0.1025077 -0.254142,0.1025079 -0.365616,-0.00135 C 11.837775,9.1915704 11.636842,9.1499794 11.254976,8.9830984 11.006803,8.8746429 10.60375,8.658345 10.619841,8.6422536 c 0.0043,-0.00429 0.049,0.00357 0.09936,0.017477 0.08706,0.024038 0.551691,0.079274 0.564435,0.067101 0.01939,-0.018521 -0.836332,-0.555081 -1.076775,-0.6751664 C 9.6477602,7.7724323 9.2644353,7.6797633 8.6791084,7.6823302 8.1688889,7.6845675 7.9746057,7.7267897 7.5822606,7.9206988 7.3781281,8.0215873 7.292904,8.0840013 7.1013256,8.2729106 6.9732644,8.3991881 6.8749265,8.5089452 6.8827969,8.5168157 c 0.00787,0.00787 0.091447,-0.039613 0.1857259,-0.1055186 0.229231,-0.1602443 0.5484574,-0.3062039 0.8662961,-0.3960968 0.2377096,-0.06723 0.2986657,-0.073826 0.679001,-0.073475 0.277451,2.626e-4 0.4353964,0.010898 0.4700777,0.031669 0.044664,0.026751 0.030317,0.031398 -0.099034,0.032077 C 8.5130557,8.0079461 7.8275169,8.270636 7.4484494,8.5942022 7.1750192,8.8275981 6.926489,9.2051067 6.8467882,9.5081052 L 6.8124947,9.6384789 6.7860597,9.4065984 6.7596248,9.174718 6.7003,9.2805829 C 6.5485015,9.5514654 6.4931548,10.082939 6.5802549,10.433331 c 0.023436,0.09428 0.08781,0.261715 0.1430533,0.372077 l 0.1004422,0.200658 -0.097352,-0.01408 C 6.5795185,10.970754 6.3676255,10.919578 6.1103466,10.843202 5.9830594,10.805416 5.8386299,10.7745 5.7893924,10.7745 c -0.119762,0 -0.2607484,0.07631 -0.3877696,0.209889 -0.1182974,0.124403 -0.5011673,0.43365 -0.7219489,0.583124 -0.3786332,0.256343 -0.4505083,0.49816 -0.2085756,0.701733 0.2427798,0.204285 0.6607819,0.08735 1.3618296,-0.38096 l 0.3220693,-0.215148 0.2892563,0.09817 C 7.118487,12.000144 7.6223058,12.004817 8.03685,11.78608 8.2695873,11.663274 8.5619727,11.359379 8.6960772,11.100901 8.8699268,10.765818 8.9573466,10.468369 9.0913439,9.7559985 l 0.022105,-0.1175195 0.044883,0.1436348 c 0.024685,0.078999 0.058496,0.2533522 0.075136,0.3874512 0.036424,0.293544 -3.851e-4,0.69902 -0.088947,0.979606 l -0.057249,0.181394 0.076659,0.06287 c 0.042163,0.03458 0.1886323,0.1381 0.3254885,0.230053 0.5274176,0.354369 1.1176106,0.568376 1.7345856,0.628968 l 0.18145,0.01782 -0.119284,-0.136359 c -0.152406,-0.174224 -0.333835,-0.490951 -0.380145,-0.663636 -0.04989,-0.186015 -0.07016,-0.475976 -0.04611,-0.659342 l 0.0202,-0.153954 0.04403,0.195865 c 0.06976,0.310292 0.19207,0.54037 0.441372,0.830249 0.242198,0.281618 0.689436,0.548114 1.08017,0.643641 0.451979,0.1105 1.284109,0.155249 1.66229,0.08939 z M 13.99765,10.030247 c -0.264191,-0.091464 -0.372405,-0.3522803 -0.250579,-0.6039392 0.102928,-0.2126209 0.421463,-0.2854655 0.622455,-0.1423469 0.09757,0.069474 0.185553,0.2300856 0.185553,0.3387148 0,0.2851897 -0.292719,0.4992153 -0.557429,0.4075713 z m 0.248516,-0.4741669 c 0.05898,-0.053381 0.06304,-0.1803667 0.0065,-0.2020817 -0.154023,-0.059104 -0.267409,0.051301 -0.183775,0.1789442 0.05029,0.076756 0.109536,0.084487 0.177325,0.023137 z M 12.478071,8.1590378 C 12.116308,7.8995542 11.863736,7.6848188 11.6026,7.4147142 11.344308,7.1475519 10.94175,6.649775 10.73988,6.3479303 10.588079,6.1209508 10.395402,5.7589525 10.415627,5.7387277 c 0.01568,-0.015682 0.327634,0.1900952 0.587754,0.3877078 0.786201,0.5972748 1.414281,1.3702084 1.697693,2.08923 0.0282,0.071552 0.04814,0.130095 0.0443,0.130095 -0.0038,0 -0.124125,-0.084025 -0.267303,-0.1867227 z M 6.1500915,10.031358 C 6.1389679,9.8914907 6.2084985,9.4284905 6.2679211,9.2467427 6.2914018,9.1749251 6.3550897,9.0427159 6.4094495,8.9529441 l 0.098836,-0.1632214 h -0.097713 c -0.2218618,0 -0.4638003,0.1949197 -0.5477878,0.4413302 -0.053115,0.1558345 -0.037684,0.4426063 0.031851,0.591937 0.058207,0.1250018 0.2105222,0.3247351 0.2476412,0.3247351 0.00939,0 0.012904,-0.05236 0.00781,-0.116367 z M 13.42243,7.4460089 C 13.347892,5.9607642 13.043577,5.0519549 12.319212,4.1513439 11.983206,3.7335841 11.54228,3.3719498 11.483967,3.4663017 c -0.02987,0.048332 -0.01302,0.4567888 0.03031,0.7346049 0.07751,0.4969528 0.228318,1.0406759 0.43484,1.5677343 0.140043,0.3573976 0.139714,0.3569443 0.647107,0.8926745 0.197554,0.208587 0.535315,0.6564498 0.694342,0.9206797 0.07067,0.1174193 0.133215,0.2139061 0.138991,0.2144154 0.0058,5.077e-4 0.0026,-0.1571714 -0.0071,-0.3504016 z"
       id="path1" />
  </g>
</svg>
